<svg width="400" height="400" viewBox="0 0 400 400" fill="none" xmlns="http://www.w3.org/2000/svg">
  <!-- Cardinal Body -->
  <path d="M200 50C200 50 150 100 150 200C150 250 175 300 200 350C225 300 250 250 250 200C250 100 200 50 200 50Z" fill="#DC2626"/>
  <!-- Cardinal Head -->
  <path d="M200 150C200 150 175 125 150 125C125 125 100 150 100 175C100 200 125 225 150 225C175 225 200 200 200 175C200 150 175 125 150 125Z" fill="#DC2626"/>
  <!-- Cardinal Beak -->
  <path d="M150 175L125 200L100 175L125 150L150 175Z" fill="#111827"/>
  <!-- Cardinal Eye -->
  <circle cx="135" cy="165" r="5" fill="#111827"/>
  <!-- Cardinal Wing -->
  <path d="M200 200C200 200 225 175 250 175C275 175 300 200 300 225C300 250 275 275 250 275C225 275 200 250 200 225C200 200 225 175 250 175Z" fill="#DC2626"/>
</svg> 